PathFileType	4	(X/Y/Z)	Patient4_TMGait_0pt4_02_right_03.trc.trc
DataRate	CameraRate	NumFrames	NumMarkers	Units	OrigDataRate	OrigDataStartFrame	OrigNumFrames
73.684210526316	73.684210526316	4	33	mm	73.684210526316	53	       141
Frame#	Time	Sacral			L.Shoulder			Chest			R.Shoulder			Neck			R.ASIS			L.ASIS			R.Thigh.Superior			R.Thigh.Lateral			R.Thigh.Inferior			R.Patella			L.Thigh.Superior			L.Thigh.Lateral			L.Thigh.Inferior			L.Patella			L.Shank.Superior			L.Shank.Lateral			L.Shank.Inferior			R.Shank.Superior			R.Shank.Lateral			R.Shank.Inferior			R.Heel			R.Midfoot.Superior			R.Midfoot.Lateral			R.Toe			L.Heel			L.Midfoot.Lateral			L.Midfoot.Superior			L.Toe			L.Elbow			L.Wrist			R.Elbow			R.Wrist			
		X1	Y1	Z1	X2	Y2	Z2	X3	Y3	Z3	X4	Y4	Z4	X5	Y5	Z5	X6	Y6	Z6	X7	Y7	Z7	X8	Y8	Z8	X9	Y9	Z9	X10	Y10	Z10	X11	Y11	Z11	X12	Y12	Z12	X13	Y13	Z13	X14	Y14	Z14	X15	Y15	Z15	X16	Y16	Z16	X17	Y17	Z17	X18	Y18	Z18	X19	Y19	Z19	X20	Y20	Z20	X21	Y21	Z21	X22	Y22	Z22	X23	Y23	Z23	X24	Y24	Z24	X25	Y25	Z25	X26	Y26	Z26	X27	Y27	Z27	X28	Y28	Z28	X29	Y29	Z29	X30	Y30	Z30	X31	Y31	Z31	X32	Y32	Z32	X33	Y33	Z33	

53	3.965714285714	859.155624075882	1009.662887345204	541.371879543953	1024.228117198661	1438.221904296983	343.188541117635	1145.622659873383	1367.728390898651	489.981954273411	1086.198846913764	1441.608779120702	673.284218015816	1026.571861553817	1498.548377744355	498.886978889043	1100.504515555049	942.909975264659	626.967505254487	1051.153394475700	971.453756557245	357.413139163189	1127.094736161278	738.726195507495	587.901795725823	1050.366572723326	631.805120118962	658.105891008457	1112.656354813425	578.659623933054	566.928375610074	1109.079926735127	493.618103752514	571.652905794304	1139.328791883069	793.006743479750	375.440934048799	1095.447804138415	665.644906993643	296.396322290903	1205.048121667993	609.422352553322	349.455931552093	1228.405189713567	530.986893381415	338.258964400245	1187.914827668188	455.762555390944	329.385022915683	1074.974410290665	360.129960826599	285.096253136455	1125.031437703402	235.333003849926	330.746198813840	1082.384457171245	404.290847149046	581.387367396266	1018.171518926995	299.634263898040	650.275392388314	1050.204794575484	206.209704278720	579.939335800211	912.370854332767	42.297415493959	562.048362716427	1085.794962613611	96.914887878620	580.550953809052	1002.680368868232	37.063769040468	628.450244952012	1208.668343410135	45.328521130274	595.970745581601	988.788697714861	90.143920987372	375.640851073650	1051.810570601663	80.403403746617	287.686866717984	1143.331338876859	134.192258512024	303.687832872692	1259.283223823601	72.558158272287	259.332362110934	960.465270221229	1094.011658636410	220.397296870798	1046.927788074752	851.309604775895	166.380538388698	1141.815587837335	1109.106811451410	814.728152371152	1366.300713327522	1000.222673053769	753.932283524555	
54	3.979285714286	858.295222400353	1010.090388991672	543.005128553818	1022.940632699332	1438.117810822540	343.739133355606	1145.363364289774	1367.309282755794	489.503395237269	1087.804734710848	1441.570124539120	673.260121372891	1026.716364376175	1498.414765879269	499.452992857150	1099.703488049956	942.753783965676	627.005062285353	1049.029692515087	971.460035850536	357.652652253221	1124.293690721386	738.240355373879	588.182708721270	1047.092147701206	631.779410673929	658.911339621937	1108.530582304631	578.204409444777	567.594016406238	1104.439455344324	493.372228715313	572.516261988358	1136.604552077565	793.497920020823	375.675166370774	1093.503309358304	666.187211216907	296.080952612283	1202.935477983479	610.460795726825	350.055993038858	1227.866802626694	534.062346427173	338.413592218715	1191.169880849820	458.629754801709	328.922782981276	1084.450089191035	356.589328008090	283.637871536065	1142.157842531776	234.444669497441	328.675038225796	1077.482951115573	404.096940346183	582.124980465303	1013.114672638082	299.513859420731	651.097004288839	1044.912547908816	206.116319531995	580.349124020047	906.870955423405	42.300895823057	562.091424762649	1080.355997438639	96.869697954661	580.656693618888	997.201038425072	37.034743205683	628.497445547112	1203.189190671144	45.242884969946	595.988551410368	1014.973869188628	80.877884903078	372.757641652216	1078.743968994181	75.123549963905	284.871300692567	1167.121532511120	134.087075245995	301.119420555109	1286.684358996760	79.340111474373	256.853592601886	955.568803406797	1094.778335498781	220.941602319182	1033.694590957361	849.840498628936	165.136527755041	1148.821258764143	1109.568133762063	812.957463135144	1376.501395073910	1011.179269780016	747.674956377351	
55	3.992857142857	857.431722091677	1010.444590843715	544.301600443373	1021.835087989976	1437.977060364874	344.089089929954	1145.122694151391	1366.823489245639	488.939016294880	1089.226156747575	1441.396707502968	673.094651339221	1026.891930723875	1498.205314917782	499.895294368358	1098.865061437849	942.595906195909	627.004795279446	1047.134073149923	971.271277812053	357.810007341531	1121.600592911018	737.748158258865	588.539429395369	1043.841636228261	631.742482345859	659.673475623830	1104.487354238507	577.760389779929	568.276188235327	1099.861431890897	493.100481288753	573.376152364372	1133.837032955569	793.549923684356	375.945219049289	1091.435090633789	666.408134857908	295.664384759454	1200.585934845134	611.000939169427	350.633389647794	1226.949570955822	536.702173527361	338.705873612512	1193.962337020621	461.288759509549	328.629453835093	1093.747751401097	353.425187734026	282.008438079778	1158.452745512616	234.284705618943	326.763618081151	1072.633374116315	403.886533772429	582.844508440136	1008.072928871211	299.393263359367	651.868581846424	1039.643779188965	206.019082750619	580.746797338619	901.364142372680	42.301976503780	562.132335109669	1074.915831966702	96.827482198233	580.761531218297	991.717173876530	37.006027439941	628.543958158411	1197.707852240615	45.162738508149	596.012105368707	1040.147852785644	73.393563851785	369.630636354983	1104.844825242383	71.192632927236	282.143264669931	1189.967074596443	134.837994938534	298.909001627468	1312.740014537621	86.532639537167	255.440569570701	950.777184871536	1095.533263366083	221.379961675878	1020.991429673869	848.703845646828	164.196438788881	1155.599925485985	1109.794895324183	810.647014594374	1385.808735997178	1021.569841540238	741.053462736030	
56	4.006428571429	856.577687905364	1010.728165976856	545.259274114588	1020.917450782681	1437.813953787729	344.231745210153	1144.895233458197	1366.296723491117	488.299821314945	1090.428749670073	1441.114801665616	672.792592066313	1027.075293847733	1497.945133439700	500.185992303878	1098.005558055227	942.442846904575	626.975227151204	1045.485855567525	970.926896581794	357.879992014479	1119.041124463047	737.251649373062	588.946082647781	1040.637085262472	631.695213474929	660.356501016371	1100.553033481222	577.329557159186	568.936622626172	1095.363824672199	492.799222277016	574.179886554363	1131.134289707003	793.247500373307	376.251334075747	1089.337307138343	666.365737868852	295.178006634924	1198.151953544010	611.122777540680	351.113658280088	1225.769371061533	538.914860690195	339.101620579934	1196.337070778078	463.728764891291	328.485928133693	1102.710098628211	350.719223015539	280.278170034601	1173.652001813638	234.806927625758	325.056038394229	1067.855021942763	403.659044508775	583.505446627527	1003.061722642164	299.279251442085	652.553462273972	1034.408645365059	205.917130958146	581.111559692981	895.855757649023	42.301132772076	562.170202436203	1069.473532840531	96.791195947611	580.861056337605	986.230379320429	36.979742312147	628.589385519584	1192.225067301552	45.094166287335	596.042235998861	1063.806799339968	67.719012074524	366.402616239559	1129.605921739024	68.566132614985	279.609633070355	1211.477828989701	136.331317018436	297.098449903207	1337.051555527120	93.872083641849	255.077811774791	946.075249295210	1096.284742053872	221.727439539147	1008.895347137509	847.880409232305	163.552144828326	1162.128431143550	1109.824048669443	807.806573581292	1394.240352167352	1031.290152198667	734.119451691322	
